<?xml version="1.0" encoding="utf-8"?>
<!-- Generator: Adobe Illustrator 22.0.0, SVG Export Plug-In . SVG Version: 6.00 Build 0)  -->
<svg version="1.1" xmlns="http://www.w3.org/2000/svg" xmlns:xlink="http://www.w3.org/1999/xlink" x="0px" y="0px"
	 viewBox="0 0 2000 2000" style="enable-background:new 0 0 2000 2000;" xml:space="preserve">
<style type="text/css">
	.st0{fill:url(#SVGID_1_);}
</style>
<g id="Layer_1">
	<linearGradient id="SVGID_1_" gradientUnits="userSpaceOnUse" x1="-4.348352e-05" y1="999.5" x2="2001" y2="999.5">
		<stop  offset="0" style="stop-color:#992AFF"/>
		<stop  offset="0.5" style="stop-color:#3F81FF"/>
		<stop  offset="1" style="stop-color:#00E9D9"/>
	</linearGradient>
	<path class="st0" d="M1724.2,202L589.6,4C407.8-27.7,234.7,94,203,275.8L5,1410.4c-31.7,181.8,90,354.9,271.8,386.6l1134.6,198
		c181.8,31.7,354.9-90,386.6-271.8l198-1134.6C2027.7,406.8,1906,233.7,1724.2,202z M1665.4,1354.8l-551.6,387.7
		c-151,106.1-359.4,69.8-465.6-81.2l-387.7-551.6c-106.1-151-69.8-359.4,81.2-465.6l551.6-387.7c151-106.1,359.4-69.8,465.6,81.2
		l387.7,551.6C1852.7,1040.3,1816.3,1248.7,1665.4,1354.8z"/>
</g>
<g id="Layer_2">
</g>
</svg>
