<?xml version="1.0" encoding="utf-8"?>
<!-- Generator: Adobe Illustrator 22.0.0, SVG Export Plug-In . SVG Version: 6.00 Build 0)  -->
<svg version="1.1" id="Layer_3" xmlns="http://www.w3.org/2000/svg" xmlns:xlink="http://www.w3.org/1999/xlink" x="0px" y="0px"
	 viewBox="0 0 2000 2000" style="enable-background:new 0 0 2000 2000;" xml:space="preserve">
<style type="text/css">
	.st0{fill:url(#SVGID_1_);stroke:url(#SVGID_2_);stroke-miterlimit:10;}
</style>
<linearGradient id="SVGID_1_" gradientUnits="userSpaceOnUse" x1="227.6672" y1="996.2645" x2="1774" y2="996.2645">
	<stop  offset="0" style="stop-color:#CB00FF"/>
	<stop  offset="1" style="stop-color:#00DEFF"/>
</linearGradient>
<linearGradient id="SVGID_2_" gradientUnits="userSpaceOnUse" x1="227.1672" y1="996.2645" x2="1774.5" y2="996.2645">
	<stop  offset="0" style="stop-color:#3FFF9C"/>
	<stop  offset="1" style="stop-color:#00DEFF"/>
</linearGradient>
<path class="st0" d="M1476.2,445.6l-385.4-169C839.6,166.5,547.1,277,437.4,523.5L269.3,901.4c-109.7,246.4,5,535.5,256.2,645.6
	l385.4,169c251.2,110.1,543.7-0.4,653.4-246.8l168.2-377.9C1842.1,844.7,1727.4,555.7,1476.2,445.6z M1539,741.6
	c-8.6,10.6-26.3,30.3-53.3,59.2c-49.6,53.3-92.6,107.1-129.1,161.3c-36.5,54.2-64.1,103.7-82.9,148.4s-28.2,80-28.2,106
	c0,16.1,3,27.8,9,35c6,7.3,15.4,11,28.2,11c11.7,0,22.5-2.2,32.5-6.6s21.1-10.6,33.4-18.6s23.8-15.7,34.7-23
	c15.3-9.1,30.3-18.9,45.1-29.3s26.3-18.6,34.5-24.6s14.3-10.3,18.3-12.9v37.8c-34.6,32.3-64.1,58.3-88.3,78.1
	c-24.3,19.8-48.4,37.5-72.5,53.3c-24.1,15.8-44,27-59.9,33.7c-15.9,6.7-29.5,10.1-40.8,10.1c-27.1,0-49.2-10-66.4-30
	c-17.2-20-25.8-45.9-25.8-77.6c0-36.4,7.4-72.5,22.1-108.2s35.8-72.6,63.2-110.6s61.6-80.8,102.8-128.1c30.6-35,45.9-54.8,45.9-59.1
	c0-2.6-0.9-4.8-2.7-6.6c-1.8-1.8-3.8-2.7-6-2.7c-6.9,0-28.3,15.3-64,46c-35.7,30.7-81.6,75.8-137.5,135.3
	c-55.9,59.5-116.3,130.3-181,212.5c-3.7,4.4-15.3,19.2-34.8,44.4c-19.5,25.3-33.3,41.7-41.4,49.3c-8,7.6-15,11.4-20.8,11.4
	c-10.2,0-19.1-10.3-26.6-30.9c-7.5-20.6-11.2-42.6-11.2-65.9c0-14.2,4.6-29.5,14-45.9c9.3-16.4,29.5-45.9,60.7-88.4
	c31.2-42.5,57-78.3,77.4-107.5c20.4-29.2,42.9-64.5,67.3-106.1c17.1-28.8,29.7-51.9,37.9-69c8.2-17.2,12.3-32.3,12.3-45.5
	c0-11.3-3.3-17-9.8-17c-13.8,0-39.9,18.5-78.1,55.6c-38.2,37.1-85.5,92.1-141.7,165.1s-115,157.5-176.1,253.6
	c-20,32.6-34.2,54.5-42.5,65.8c-8.4,11.2-17.6,16.8-27.8,16.8c-12.7,0-24.6-13.5-35.7-40.6c-11.1-27.1-16.6-48.9-16.6-65.7
	c0-5.4,2.2-11.4,6.5-18c48-64.3,87.4-118.8,118.3-163.8s58.3-87.5,82.3-127.9s41.4-73.6,52.3-99.7c10.9-26.1,16.4-46.6,16.4-61.6
	c0-15.7-7.1-23.5-21.3-23.5c-11.7,0-31.5,7.5-59.5,22.5c-28,15-63.5,35.4-106.3,61.3c-42.8,25.9-77.1,45.7-103,59.4
	s-45.1,20.5-57.9,20.5c-12,0-18-6.8-18-20.3c0-7.7,2.6-25.3,7.7-52.8c5.1-27.6,10.5-47,16-58.3c7.7-14.6,27.3-34,59-58.1
	c31.6-24.1,49.1-36.2,52.4-36.2c2.9,0,4.4,1.3,4.4,3.8c0,1.5-1.5,3.7-4.5,6.6c-14.9,12.1-26,21.9-33.3,29.6
	c-7.3,7.7-11.8,16.1-13.6,25.2c66.6-40.2,126.2-70.8,178.8-91.8s89.1-31.5,109.5-31.5c10.2,0,19.8,6.9,28.9,20.5
	s16.8,29.6,23.2,47.7s9.6,29.7,9.6,34.8c0,18.6-4.8,40.6-14.3,66c-9.5,25.4-22.4,54.9-38.7,88.5s-36.5,75.6-60.6,126
	c19-24.5,37-47.1,54.2-67.9s34.2-41.1,51.2-60.8s34.2-39.6,51.7-59.7c23.7-27.4,50.3-53.6,79.9-78.6c29.5-25,57.2-45.5,82.9-61.3
	c25.7-15.9,43.1-23.8,52.3-23.8c12.8,0,24.2,7,34.2,21.1s15,29.1,15,45.2c0,10.6-7,30.9-20.8,60.8s-34.2,68.3-60.8,115
	s-61.9,107-105.8,180.7c41.6-44.2,84.9-89.6,129.9-136.4s78.4-80.9,100.2-102.4s40.1-38,54.7-49.3c20-15.3,40.2-31.9,60.4-49.6
	s36.2-31.7,47.9-41.9c11.7-10.2,22-18.1,31.2-23.6c9.1-5.5,17.5-8.2,25.2-8.2c9.5,0,21.4,11,35.8,32.9s21.6,36,21.6,42.2
	C1551.9,721.9,1547.6,731,1539,741.6z"/>
</svg>
