<?xml version="1.0" encoding="utf-8"?>
<!-- Generator: Adobe Illustrator 22.0.0, SVG Export Plug-In . SVG Version: 6.00 Build 0)  -->
<svg version="1.1" id="Layer_2" xmlns="http://www.w3.org/2000/svg" xmlns:xlink="http://www.w3.org/1999/xlink" x="0px" y="0px"
	 viewBox="0 0 2000 2000" style="enable-background:new 0 0 2000 2000;" xml:space="preserve">
<style type="text/css">
	.st0{fill:url(#SVGID_1_);stroke:url(#SVGID_2_);stroke-miterlimit:10;}
</style>
<linearGradient id="SVGID_1_" gradientUnits="userSpaceOnUse" x1="5" y1="999.2238" x2="2002.8478" y2="999.2238">
	<stop  offset="0" style="stop-color:#CB00FF"/>
	<stop  offset="1" style="stop-color:#00DEFF"/>
</linearGradient>
<linearGradient id="SVGID_2_" gradientUnits="userSpaceOnUse" x1="4.5" y1="999.2238" x2="2003.3478" y2="999.2238">
	<stop  offset="0" style="stop-color:#3FFF9C"/>
	<stop  offset="1" style="stop-color:#00DEFF"/>
</linearGradient>
<path class="st0" d="M1439.4,101.4l-561.9-92c-366.2-60-711.7,188.3-771.6,554.5l-91.9,561.6c-60,366.2,188.3,711.7,554.5,771.6
	l561.9,92c366.2,60,711.7-188.3,771.6-554.5l91.9-561.6C2053.9,506.8,1805.6,161.3,1439.4,101.4z M1363.6,1693.5l-435.5,76
	c-283.8,49.6-553.8-140-603.2-423.3l-75.6-434.5C200.1,628.4,390.2,358.5,674,308.9l435.5-76c283.8-49.6,553.8,140,603.2,423.3
	l75.6,434.5C1837.5,1374.1,1647.4,1643.9,1363.6,1693.5z"/>
</svg>
