<?xml version="1.0" encoding="utf-8"?>
<!-- Generator: Adobe Illustrator 22.0.0, SVG Export Plug-In . SVG Version: 6.00 Build 0)  -->
<svg version="1.1" id="Layer_1" xmlns="http://www.w3.org/2000/svg" xmlns:xlink="http://www.w3.org/1999/xlink" x="0px" y="0px"
	 viewBox="0 0 2000 2000" style="enable-background:new 0 0 2000 2000;" xml:space="preserve">
<style type="text/css">
	.st0{fill:#FFFFFF;stroke:#000000;stroke-miterlimit:10;}
	.st1{fill:url(#SVGID_1_);stroke:url(#SVGID_2_);stroke-miterlimit:10;}
</style>
<path class="st0" d="M306.5-71.5"/>
<linearGradient id="SVGID_1_" gradientUnits="userSpaceOnUse" x1="7.281503e-02" y1="998.3805" x2="1997.9205" y2="998.3805">
	<stop  offset="0" style="stop-color:#CB00FF"/>
	<stop  offset="1" style="stop-color:#00DEFF"/>
</linearGradient>
<linearGradient id="SVGID_2_" gradientUnits="userSpaceOnUse" x1="-0.4272" y1="998.3805" x2="1998.4205" y2="998.3805">
	<stop  offset="0" style="stop-color:#3FFF9C"/>
	<stop  offset="1" style="stop-color:#00DEFF"/>
</linearGradient>
<path class="st1" d="M1434.5,100.5l-561.9-92c-366.2-60-711.7,188.3-771.6,554.5L9,1124.6c-60,366.2,188.3,711.7,554.5,771.6
	l561.9,92c366.2,60,711.7-188.3,771.6-554.5l91.9-561.6C2048.9,505.9,1800.7,160.5,1434.5,100.5z M1689.7,616.6
	c-47.5-69.5-114.2-127.3-196.7-164.2l-410.6-183.8c-24.3-10.9-49-19.5-74-26.1l84.9-12.4C1364.2,190.7,1617.3,360,1689.7,616.6z
	 M1253.8,1251.6c6,7.3,15.4,10.9,28.2,10.9c11.7,0,22.5-2.2,32.5-6.6c10-4.4,21.1-10.6,33.4-18.6c12.2-8,23.8-15.7,34.7-23
	c15.3-9.1,30.3-18.9,45.1-29.3s26.3-18.6,34.5-24.6c8.2-6,14.3-10.3,18.3-12.9v37.8c-34.6,32.4-64.1,58.5-88.3,78.3
	c-24.3,19.8-48.4,37.6-72.5,53.5c-24.1,15.8-44,27.1-59.9,33.8c-15.9,6.7-29.4,10.1-40.7,10.1c-27,0-49.1-10-66.2-30.1
	c-17.2-20-25.7-45.9-25.7-77.6c0-36.4,7.4-72.5,22.1-108.2c14.8-35.7,35.8-72.6,63.2-110.7c27.3-38.1,61.6-80.8,102.8-128.2
	c30.6-35,45.9-54.7,45.9-59.1c0-2.5-0.9-4.7-2.7-6.5c-1.8-1.8-3.8-2.7-6-2.7c-6.9,0-28.3,15.3-64,46
	c-35.7,30.6-81.6,75.7-137.6,135.2s-116.5,130.2-181.6,212.3c-3.7,4.4-15.2,19.1-34.8,44.4s-33.3,41.7-41.3,49.3
	c-8,7.6-15,11.4-20.8,11.4c-10.2,0-19.1-10.3-26.6-30.9c-7.5-20.6-11.2-42.6-11.2-65.9c0-14.2,4.7-29.5,14-45.9
	c9.3-16.4,29.6-45.8,60.8-88.3c31.2-42.4,57.1-78.2,77.5-107.4c20.4-29.1,42.9-64.5,67.4-106c17.2-28.8,29.9-51.8,38.1-68.9
	c8.2-17.2,12.3-32.3,12.3-45.4c0-11.3-3.3-17-9.9-17c-13.9,0-40,18.5-78.3,55.5c-38.3,37-85.7,92-142.1,165
	c-56.4,73-115.3,157.4-176.6,253.4c-20.1,32.7-34.3,54.7-42.7,66c-8.4,11.3-17.7,16.9-27.9,16.9c-12.8,0-24.7-13.5-35.8-40.7
	c-11.1-27.1-16.7-49-16.7-65.8c0-5.5,2.2-11.5,6.6-18c48.1-64.2,87.7-118.7,118.7-163.6c31-44.9,58.5-87.5,82.6-127.8
	c24-40.3,41.6-73.5,52.5-99.6c10.9-26.1,16.4-46.6,16.4-61.6c0-15.7-7.1-23.5-21.3-23.5c-11.7,0-31.5,7.5-59.6,22.4
	c-28.1,14.9-63.5,35.4-106.3,61.3c-42.8,25.9-77.2,45.7-103.1,59.4c-25.9,13.7-45.2,20.5-58,20.5c-12,0-18-6.7-18-20.3
	c0-7.6,2.6-25.2,7.6-52.8c5.1-27.6,10.4-47,15.8-58.3c7.7-14.6,27.2-33.9,58.7-58s48.9-36.1,52.2-36.1c2.9,0,4.4,1.3,4.4,3.8
	c0,1.5-1.5,3.7-4.4,6.6c-14.9,12-26.1,21.9-33.4,29.5c-7.3,7.7-11.8,16.1-13.7,25.2c66.7-40.1,126.4-70.7,179.1-91.7
	c52.7-21,89.2-31.5,109.7-31.5c10.2,0,19.9,6.8,29,20.5c9.1,13.7,16.9,29.5,23.2,47.6c6.4,18.1,9.6,29.6,9.6,34.7
	c0,18.6-4.7,40.6-14.2,65.9c-9.5,25.4-22.4,54.8-38.6,88.4c-16.2,33.6-36.4,75.5-60.5,125.8c19-24.4,37.1-47.1,54.2-67.9
	c17.2-20.8,34.2-41,51.2-60.7c17-19.7,34.2-39.6,51.8-59.7c23.7-27.4,50.4-53.5,79.9-78.5c29.6-25,57.2-45.4,82.9-61.3
	c25.7-15.9,43.2-23.8,52.3-23.8c12.8,0,24.2,7,34.2,21.1s15.1,29.1,15.1,45.1c0,10.6-6.9,30.8-20.8,60.8
	c-13.9,29.9-34.1,68.2-60.7,114.9c-26.6,46.7-61.8,106.9-105.6,180.6c41.6-44.1,84.8-89.5,129.6-136.2
	c44.8-46.7,78.2-80.8,100.1-102.3c21.9-21.5,40.1-37.9,54.7-49.3c20.1-15.3,40.2-31.8,60.4-49.5s36.2-31.6,47.9-41.9
	c11.7-10.2,22.1-18.1,31.2-23.5c9.1-5.5,17.5-8.2,25.2-8.2c9.5,0,21.4,11,35.8,32.8c14.4,21.9,21.6,35.9,21.6,42.1
	c0,7.7-4.3,16.8-12.9,27.4c-8.6,10.6-26.3,30.3-53.3,59.1c-49.6,53.3-92.6,107-129.1,161.2c-36.5,54.2-64.1,103.6-82.9,148.3
	c-18.8,44.7-28.2,80-28.2,105.9C1244.8,1232.7,1247.8,1244.3,1253.8,1251.6z M640.8,298.2c-77.5,48-141.9,118.8-181.9,208.2
	L275.1,916.8c-12.1,26.9-21.4,54.4-28.1,82.1l-14.4-98.7C192.1,621.8,372.2,362.1,640.8,298.2z M300.4,1351.2
	c48,80.7,120.4,147.9,212.6,189.2l410.6,183.8c21.6,9.7,43.6,17.6,65.7,23.8l-86.6,12.6C623.8,1801.2,363.7,1620.5,300.4,1351.2z
	 M1377.3,1686.8c72.1-47.7,131.9-115.8,169.8-200.5l183.7-410.3c8.7-19.3,15.9-39,21.8-58.7l10.7,73.3
	C1802.8,1361.3,1633.6,1614.2,1377.3,1686.8z"/>
</svg>
